<svg width="24" height="18" viewBox="0 0 24 18" fill="none" xmlns="http://www.w3.org/2000/svg">
<path d="M1.2 0H22.8C23.1183 0 23.4235 0.105357 23.6485 0.292893C23.8736 0.48043 24 0.734784 24 1V17C24 17.2652 23.8736 17.5196 23.6485 17.7071C23.4235 17.8946 23.1183 18 22.8 18H1.2C0.88174 18 0.576515 17.8946 0.351472 17.7071C0.126428 17.5196 0 17.2652 0 17V1C0 0.734784 0.126428 0.48043 0.351472 0.292893C0.576515 0.105357 0.88174 0 1.2 0V0ZM21.6 4.238L12.0864 11.338L2.4 4.216V16H21.6V4.238ZM3.0132 2L12.0732 8.662L21.0024 2H3.0132Z" fill="#C4C4C4"/>
</svg>
