<svg width="48" height="48" viewBox="0 0 48 48" fill="none" xmlns="http://www.w3.org/2000/svg">
<path fill-rule="evenodd" clip-rule="evenodd" d="M1.68037 0.421875C1.06912 0.730125 0.730125 1.06912 0.421875 1.68037L0 2.517V24V45.483L0.421875 46.3196C0.730125 46.9309 1.06912 47.2699 1.68037 47.5781L2.517 48H14.0085H25.5V39V30H22.5H19.5V26.25V22.5H22.4805H25.4608L25.5435 18.7969C25.6189 15.4185 25.6684 14.9743 26.1081 13.7314C27.2134 10.6057 29.1664 8.65669 32.0498 7.80188C32.8361 7.56881 33.9144 7.5 36.7841 7.5H40.5V11.2247V14.9494L38.2031 15.0392C36.3802 15.1104 35.7516 15.2081 35.1562 15.5132C33.5625 16.3299 33.1537 17.2352 33.0384 20.2031L32.9494 22.5H36.7247C39.6248 22.5 40.4979 22.5544 40.491 22.7344C40.4861 22.8634 40.1659 24.5297 39.7794 26.4375L39.0769 29.9062L36.0384 29.9578L33 30.0094V39.0047V48H39.2415C45.3413 48 45.5021 47.9904 46.3196 47.5781C46.9309 47.2699 47.2699 46.9309 47.5781 46.3196L48 45.483V24V2.517L47.5781 1.68037C47.2699 1.06912 46.9309 0.730125 46.3196 0.421875L45.483 0H24H2.517L1.68037 0.421875Z" fill="#3B5998"/>
</svg>
