<svg width="48" height="48" viewBox="0 0 48 48" fill="none" xmlns="http://www.w3.org/2000/svg">
<rect width="48" height="48" fill="white"/>
<path d="M42.8502 16.9365L38.3968 19.5323L33.9434 24.016V39.4019H40.1782C41.654 39.4019 42.8502 38.1342 42.8502 36.5702V16.9365Z" fill="#4CAF50"/>
<path d="M5.44141 16.9365L8.66035 18.5506L14.3483 24.016V39.4019H8.11347C6.6376 39.4019 5.44141 38.1342 5.44141 36.5702V16.9365Z" fill="#1E88E5"/>
<path d="M33.9433 12.2168L24.1458 20.0042L14.3482 12.2168L13.4575 17.6916L14.3482 24.0159L24.1458 31.8032L33.9433 24.0159L34.834 17.6916L33.9433 12.2168Z" fill="#E53935"/>
<path d="M5.44141 13.2533V16.9365L14.3483 24.0159V12.2168L11.5658 10.0071C10.9031 9.48041 10.0979 9.19629 9.26958 9.19629C7.15509 9.19629 5.44141 11.0124 5.44141 13.2533Z" fill="#C62828"/>
<path d="M42.8502 13.2533V16.9365L33.9434 24.0159V12.2168L36.7259 10.0071C37.3885 9.48041 38.1937 9.19629 39.0221 9.19629C41.1366 9.19629 42.8502 11.0124 42.8502 13.2533Z" fill="#FBC02D"/>
</svg>
