<svg width="48" height="48" viewBox="0 0 48 48" fill="none" xmlns="http://www.w3.org/2000/svg">
<rect width="48" height="48" fill="#1E88E5"/>
<path d="M43.0319 13.7989C41.7616 14.4359 40.3973 14.8658 38.9628 15.057C40.4253 14.0681 41.5489 12.5018 42.0789 10.6359C40.7092 11.5506 39.1938 12.218 37.5802 12.5749C36.2872 11.022 34.4458 10.0513 32.407 10.0513C28.4944 10.0513 25.3244 13.6296 25.3244 18.0447C25.3244 18.6707 25.3859 19.2821 25.5068 19.8667C19.619 19.533 14.3993 16.3505 10.9044 11.514C10.2957 12.6954 9.94598 14.0681 9.94598 15.5333C9.94598 18.3077 11.1969 20.7534 13.0966 22.1881C11.9363 22.1455 10.844 21.7874 9.88878 21.1882C9.8877 21.2211 9.8877 21.2564 9.8877 21.2881C9.8877 25.1624 12.3292 28.3936 15.5704 29.128C14.9768 29.3095 14.3508 29.4081 13.7042 29.4081C13.2466 29.4081 12.8041 29.3582 12.3723 29.2656C13.2725 32.4396 15.8899 34.7513 18.9887 34.817C16.5655 36.9606 13.511 38.2407 10.1921 38.2407C9.62002 38.2407 9.05553 38.2029 8.50183 38.1286C11.6362 40.394 15.3599 41.7179 19.361 41.7179C32.3908 41.7179 39.5176 29.5372 39.5176 18.9727C39.5176 18.6268 39.509 18.2809 39.496 17.9375C40.8808 16.8109 42.081 15.4042 43.0319 13.7989Z" fill="white"/>
</svg>
