<svg width="25" height="25" viewBox="0 0 41 40" fill="none" xmlns="http://www.w3.org/2000/svg">
<path d="M20.5 39.2945C9.68408 39.2945 0.916626 30.527 0.916626 19.7111C0.916626 8.89527 9.68408 0.127808 20.5 0.127808C31.3158 0.127808 40.0833 8.89527 40.0833 19.7111C40.0833 30.527 31.3158 39.2945 20.5 39.2945ZM20.5 35.3778C24.655 35.3778 28.6399 33.7272 31.578 30.7891C34.516 27.8511 36.1666 23.8662 36.1666 19.7111C36.1666 15.5561 34.516 11.5712 31.578 8.63313C28.6399 5.69506 24.655 4.04447 20.5 4.04447C16.3449 4.04447 12.36 5.69506 9.42195 8.63313C6.48388 11.5712 4.83329 15.5561 4.83329 19.7111C4.83329 23.8662 6.48388 27.8511 9.42195 30.7891C12.36 33.7272 16.3449 35.3778 20.5 35.3778V35.3778ZM22.4583 19.7111H30.2916V23.6278H18.5416V9.91947H22.4583V19.7111Z" fill="black"/>
</svg>
