<svg width="34" height="34" viewBox="0 0 34 34" fill="none" xmlns="http://www.w3.org/2000/svg">
<path d="M17.0016 6.41605C20.3293 3.4283 25.4718 3.52747 28.6778 6.73905C31.8823 9.95205 31.9928 15.0691 29.0121 18.4067L16.9988 30.4371L4.98825 18.4067C2.00759 15.0691 2.1195 9.94355 5.32259 6.73905C8.53134 3.53172 13.6639 3.42405 17.0016 6.41605ZM26.6718 8.74081C24.5468 6.61297 21.1184 6.52656 18.8943 8.52406L17.003 10.2212L15.1103 8.52547C12.8791 6.52514 9.45784 6.61297 7.32717 8.74364C5.21634 10.8545 5.11009 14.2332 7.05517 16.4659L17.0002 26.4265L26.9452 16.4673C28.8917 14.2332 28.7854 10.8587 26.6718 8.74081Z" fill="black"/>
</svg>
