<svg width="25" height="25" viewBox="0 0 25 25" fill="none" xmlns="http://www.w3.org/2000/svg">
<path d="M12.7387 21.1446L17.6887 16.1946C18.6676 15.2156 19.3342 13.9683 19.6043 12.6104C19.8743 11.2526 19.7356 9.84515 19.2058 8.56611C18.676 7.28707 17.7788 6.19386 16.6276 5.42472C15.4765 4.65558 14.1231 4.24506 12.7387 4.24506C11.3543 4.24506 10.0009 4.65558 8.84979 5.42472C7.69866 6.19386 6.80145 7.28707 6.27162 8.56611C5.74178 9.84515 5.60312 11.2526 5.87316 12.6104C6.14319 13.9683 6.80981 15.2156 7.7887 16.1946L12.7387 21.1446ZM12.7387 23.9726L6.37471 17.6086C5.11604 16.3499 4.25889 14.7462 3.91163 13.0004C3.56437 11.2546 3.74261 9.44498 4.4238 7.80045C5.10499 6.15592 6.25854 4.75032 7.73858 3.76139C9.21862 2.77247 10.9587 2.24463 12.7387 2.24463C14.5187 2.24463 16.2588 2.77247 17.7388 3.76139C19.2189 4.75032 20.3724 6.15592 21.0536 7.80045C21.7348 9.44498 21.913 11.2546 21.5658 13.0004C21.2185 14.7462 20.3614 16.3499 19.1027 17.6086L12.7387 23.9726V23.9726ZM12.7387 13.2446C13.2691 13.2446 13.7778 13.0338 14.1529 12.6588C14.528 12.2837 14.7387 11.775 14.7387 11.2446C14.7387 10.7141 14.528 10.2054 14.1529 9.83034C13.7778 9.45526 13.2691 9.24455 12.7387 9.24455C12.2083 9.24455 11.6996 9.45526 11.3245 9.83034C10.9494 10.2054 10.7387 10.7141 10.7387 11.2446C10.7387 11.775 10.9494 12.2837 11.3245 12.6588C11.6996 13.0338 12.2083 13.2446 12.7387 13.2446ZM12.7387 15.2446C11.6778 15.2446 10.6604 14.8231 9.91028 14.073C9.16013 13.3228 8.7387 12.3054 8.7387 11.2446C8.7387 10.1837 9.16013 9.16627 9.91028 8.41612C10.6604 7.66598 11.6778 7.24455 12.7387 7.24455C13.7996 7.24455 14.817 7.66598 15.5671 8.41612C16.3173 9.16627 16.7387 10.1837 16.7387 11.2446C16.7387 12.3054 16.3173 13.3228 15.5671 14.073C14.817 14.8231 13.7996 15.2446 12.7387 15.2446Z" fill="black"/>
</svg>
