<svg width="23" height="24" viewBox="0 0 23 24" fill="none" xmlns="http://www.w3.org/2000/svg">
<path d="M22.375 0.333496V23.6668H19.9583V15.5002H15.125V7.3335C15.125 5.47698 15.8888 3.6965 17.2485 2.38375C18.6081 1.07099 20.4522 0.333496 22.375 0.333496V0.333496ZM19.9583 3.28516C18.9554 3.8335 17.5417 5.1985 17.5417 7.3335V13.1668H19.9583V3.28516V3.28516ZM7.875 14.2168V23.6668H5.45833V14.2168C4.09389 13.9475 2.86766 13.2314 1.98697 12.1898C1.10628 11.1481 0.62517 9.84481 0.625 8.50016V1.50016H3.04167V9.66683H5.45833V1.50016H7.875V9.66683H10.2917V1.50016H12.7083V8.50016C12.7082 9.84481 12.2271 11.1481 11.3464 12.1898C10.4657 13.2314 9.23944 13.9475 7.875 14.2168V14.2168Z" fill="#5DB94E"/>
</svg>
