<svg width="25" height="25" viewBox="0 0 25 25" fill="none" xmlns="http://www.w3.org/2000/svg">
<path d="M12.501 4.71769C14.9479 2.52081 18.7292 2.59373 21.0865 4.95519C23.4427 7.31769 23.524 11.0802 21.3323 13.5344L12.499 22.3802L3.66771 13.5344C1.47604 11.0802 1.55833 7.31144 3.91354 4.95519C6.27292 2.59685 10.0469 2.51769 12.501 4.71769V4.71769ZM19.6115 6.42706C18.049 4.86248 15.5281 4.79894 13.8927 6.26769L12.5021 7.5156L11.1104 6.26873C9.46979 4.7979 6.95417 4.86248 5.3875 6.42915C3.83542 7.98123 3.75729 10.4656 5.1875 12.1073L12.5 19.4312L19.8125 12.1083C21.2438 10.4656 21.1656 7.98435 19.6115 6.42706V6.42706Z" fill="black"/>
</svg>
