<svg width="26" height="25" viewBox="0 0 26 25" fill="none" xmlns="http://www.w3.org/2000/svg">
<path d="M10.7272 11.1271C11.7046 12.8442 13.1267 14.2663 14.8439 15.2437L15.7647 13.9542C15.9128 13.7468 16.1317 13.6009 16.3801 13.5441C16.6285 13.4873 16.8891 13.5235 17.1126 13.6458C18.5859 14.451 20.2128 14.9352 21.8866 15.0667C22.1478 15.0874 22.3916 15.2058 22.5694 15.3982C22.7473 15.5907 22.846 15.8432 22.846 16.1052V20.7531C22.846 21.011 22.7504 21.2598 22.5776 21.4513C22.4048 21.6427 22.1671 21.7633 21.9105 21.7896C21.3585 21.8469 20.8022 21.875 20.2418 21.875C11.3251 21.875 4.09596 14.6458 4.09596 5.72917C4.09596 5.16875 4.12409 4.6125 4.18138 4.06042C4.20769 3.80385 4.32824 3.56617 4.5197 3.39337C4.71117 3.22057 4.95993 3.12494 5.21784 3.125H9.86575C10.1278 3.12497 10.3802 3.2237 10.5727 3.40151C10.7652 3.57932 10.8836 3.82315 10.9043 4.08437C11.0358 5.75812 11.52 7.38508 12.3251 8.85833C12.4475 9.08184 12.4837 9.34244 12.4269 9.59083C12.37 9.83922 12.2242 10.0582 12.0168 10.2063L10.7272 11.1271V11.1271ZM8.10013 10.4427L10.0793 9.02917C9.51761 7.81676 9.13279 6.53004 8.93659 5.20833H6.18971C6.18346 5.38125 6.18034 5.55521 6.18034 5.72917C6.1793 13.4958 12.4751 19.7917 20.2418 19.7917C20.4158 19.7917 20.5897 19.7885 20.7626 19.7812V17.0344C19.4409 16.8382 18.1542 16.4534 16.9418 15.8917L15.5283 17.8708C14.9592 17.6497 14.4064 17.3886 13.8741 17.0896L13.8137 17.0552C11.7705 15.8924 10.0785 14.2004 8.91575 12.1573L8.88138 12.0969C8.58232 11.5646 8.32126 11.0118 8.10013 10.4427V10.4427Z" fill="black"/>
</svg>
