<svg width="21" height="21" viewBox="0 0 21 21" fill="none" xmlns="http://www.w3.org/2000/svg">
<path d="M16.4443 14.617L20.7715 18.899L19.3419 20.314L15.0157 16.031C13.406 17.3082 11.4038 18.0029 9.34071 18C4.32142 18 0.247787 13.968 0.247787 9C0.247787 4.032 4.32142 0 9.34071 0C14.36 0 18.4336 4.032 18.4336 9C18.4366 11.042 17.7347 13.0237 16.4443 14.617ZM14.4176 13.875C15.6998 12.5699 16.4159 10.8204 16.413 9C16.413 5.132 13.2476 2 9.34071 2C5.43277 2 2.26844 5.132 2.26844 9C2.26844 12.867 5.43277 16 9.34071 16C11.1799 16.0029 12.9475 15.2941 14.266 14.025L14.4176 13.875V13.875Z" fill="black"/>
</svg>
