<svg width="34" height="34" viewBox="0 0 34 34" fill="none" xmlns="http://www.w3.org/2000/svg">
<path d="M5.6665 31.1665C5.6665 28.1607 6.86055 25.278 8.98596 23.1526C11.1114 21.0272 13.9941 19.8332 16.9998 19.8332C20.0056 19.8332 22.8883 21.0272 25.0137 23.1526C27.1391 25.278 28.3332 28.1607 28.3332 31.1665H25.4998C25.4998 28.9122 24.6043 26.7502 23.0102 25.1561C21.4162 23.562 19.2542 22.6665 16.9998 22.6665C14.7455 22.6665 12.5835 23.562 10.9894 25.1561C9.39537 26.7502 8.49984 28.9122 8.49984 31.1665H5.6665ZM16.9998 18.4165C12.3036 18.4165 8.49984 14.6128 8.49984 9.9165C8.49984 5.22025 12.3036 1.4165 16.9998 1.4165C21.6961 1.4165 25.4998 5.22025 25.4998 9.9165C25.4998 14.6128 21.6961 18.4165 16.9998 18.4165ZM16.9998 15.5832C20.1307 15.5832 22.6665 13.0473 22.6665 9.9165C22.6665 6.78567 20.1307 4.24984 16.9998 4.24984C13.869 4.24984 11.3332 6.78567 11.3332 9.9165C11.3332 13.0473 13.869 15.5832 16.9998 15.5832Z" fill="black"/>
</svg>
